<?xml version="1.0" standalone="no"?>
<!DOCTYPE svg PUBLIC "-//W3C//DTD SVG 20010904//EN"
 "http://www.w3.org/TR/2001/REC-SVG-20010904/DTD/svg10.dtd">
<svg version="1.0" xmlns="http://www.w3.org/2000/svg"
 width="700.000000pt" height="700.000000pt" viewBox="0 0 700.000000 700.000000"
 preserveAspectRatio="xMidYMid meet">
<metadata>
Created by potrace 1.11, written by Peter Selinger 2001-2013
</metadata>
<g transform="translate(0.000000,700.000000) scale(0.100000,-0.100000)"
fill="#000000" stroke="none">
<path d="M2596 6129 c-111 -22 -146 -34 -237 -80 -208 -104 -378 -301 -453
-525 -41 -126 -57 -284 -41 -414 16 -126 77 -285 155 -401 28 -42 293 -315
774 -796 402 -403 733 -733 737 -733 7 0 1427 1421 1468 1470 143 167 230 465
199 680 -5 30 -10 66 -12 80 -13 89 -69 225 -132 322 -52 81 -173 207 -247
257 -230 157 -519 197 -781 109 -155 -52 -288 -131 -425 -254 l-75 -67 -21 24
c-61 70 -232 192 -339 243 -192 91 -392 121 -570 85z m347 -263 c143 -39 252
-113 443 -299 l147 -144 127 127 c151 151 237 218 345 270 105 51 193 68 325
65 208 -6 354 -78 485 -240 177 -219 188 -548 27 -795 -21 -32 -304 -324 -674
-694 l-637 -638 -638 638 c-351 352 -653 659 -670 684 -89 131 -122 242 -119
402 3 133 31 229 98 341 83 138 252 257 413 290 87 18 248 15 328 -7z"/>
<path d="M597 5880 c-141 -50 -237 -152 -276 -295 -8 -28 -10 -425 -8 -1370 2
-1472 -3 -1346 65 -1485 31 -62 145 -183 836 -880 139 -140 265 -275 280 -299
58 -92 59 -96 60 -486 l1 -360 740 0 740 0 0 720 c0 784 -1 790 -58 940 -72
191 -126 252 -617 705 -19 18 -64 60 -100 94 -80 74 -292 272 -340 316 -19 18
-55 51 -80 74 -351 327 -382 354 -445 384 -35 18 -69 32 -74 32 -5 0 -12 24
-16 53 -4 28 -8 66 -11 82 -2 17 -6 57 -9 90 -3 33 -7 78 -10 100 -3 22 -7 65
-9 95 -3 30 -10 96 -15 145 -6 50 -13 117 -16 150 -4 33 -8 74 -10 90 -2 17
-6 64 -10 105 -3 41 -8 86 -10 100 -2 14 -6 54 -10 90 -4 36 -8 76 -10 90 -2
14 -7 59 -10 100 -3 41 -8 86 -10 100 -2 14 -7 52 -10 85 -13 131 -25 180 -66
251 -39 68 -106 129 -184 166 -89 41 -222 49 -308 18z m203 -250 c58 -31 84
-84 95 -191 3 -41 8 -87 10 -104 2 -16 7 -59 10 -95 9 -95 15 -151 20 -190 2
-19 7 -57 9 -85 3 -27 8 -72 11 -100 3 -27 8 -76 10 -107 3 -32 8 -77 10 -100
3 -24 9 -88 15 -143 6 -55 12 -116 15 -135 5 -44 13 -128 20 -205 7 -71 13
-125 21 -181 5 -40 4 -42 -38 -67 -127 -74 -209 -224 -202 -368 6 -114 34
-172 134 -269 47 -47 104 -101 126 -120 83 -74 231 -207 279 -251 28 -25 93
-84 145 -130 52 -46 104 -93 116 -104 12 -11 39 -36 60 -55 21 -19 83 -75 137
-123 l98 -88 80 93 81 93 -44 39 c-24 22 -70 65 -104 95 -50 46 -216 198 -258
236 -111 101 -225 204 -242 220 -40 37 -181 165 -203 184 -128 111 -151 146
-146 223 4 75 54 129 132 144 63 12 95 -3 174 -77 62 -59 215 -203 328 -309
15 -14 92 -86 171 -161 80 -75 161 -151 180 -169 19 -18 94 -88 165 -155 72
-68 172 -163 224 -212 229 -215 258 -249 304 -359 44 -105 49 -160 43 -564 -3
-206 -5 -468 -5 -582 l-1 -208 -494 0 -494 0 -4 263 c-4 236 -6 269 -26 327
-43 130 -72 164 -582 681 -267 271 -498 504 -513 518 -34 31 -89 114 -107 161
-11 28 -14 278 -15 1320 -1 707 2 1299 7 1316 4 17 24 47 43 67 52 54 134 65
205 27z"/>
<path d="M6210 5887 c-72 -21 -118 -47 -174 -98 -60 -55 -100 -122 -120 -205
-14 -56 -17 -81 -31 -229 -3 -33 -10 -96 -15 -140 -5 -44 -12 -107 -15 -140
-11 -111 -16 -160 -20 -195 -2 -19 -9 -82 -15 -140 -6 -58 -13 -121 -15 -140
-2 -19 -7 -64 -10 -100 -3 -36 -8 -81 -10 -100 -11 -96 -16 -140 -20 -195 -3
-33 -7 -76 -10 -95 -18 -151 -12 -135 -62 -148 -46 -13 -115 -55 -144 -89 -9
-10 -69 -67 -134 -128 -65 -60 -133 -123 -150 -140 -18 -16 -78 -73 -135 -125
-56 -52 -117 -108 -135 -125 -164 -153 -266 -248 -295 -274 -19 -18 -57 -54
-85 -80 -27 -26 -88 -82 -135 -126 -247 -228 -309 -299 -368 -421 -36 -73 -68
-172 -78 -244 -4 -30 -8 -381 -8 -780 l-1 -726 730 2 c401 0 735 2 741 3 7 1
10 103 10 319 -1 174 2 342 5 373 13 118 32 143 358 471 612 619 715 724 758
782 67 91 106 183 119 282 4 33 7 626 7 1319 0 953 -3 1271 -12 1305 -36 132
-126 243 -244 299 -56 27 -83 33 -155 37 -55 2 -104 -1 -132 -9z m224 -278
c19 -13 43 -42 53 -64 17 -37 18 -86 15 -795 -2 -415 -5 -989 -7 -1275 -4
-572 -4 -580 -66 -665 -17 -23 -176 -189 -353 -367 -746 -753 -739 -746 -786
-870 -36 -98 -42 -145 -43 -386 l-1 -237 -493 0 -493 0 1 608 c0 599 1 608 23
684 41 139 87 199 330 423 65 61 135 125 155 144 20 18 94 88 165 155 71 66
138 129 149 138 11 10 70 64 131 122 61 57 125 117 141 132 47 42 253 235 320
298 96 92 158 108 232 60 41 -27 73 -77 79 -124 5 -39 -14 -97 -40 -122 -27
-27 -191 -178 -225 -207 -24 -21 -169 -153 -241 -221 -21 -19 -76 -69 -121
-110 -46 -41 -111 -100 -144 -130 -71 -66 -124 -114 -184 -169 l-45 -40 74
-83 c41 -46 77 -87 81 -92 7 -8 62 38 234 196 22 20 49 45 61 55 28 24 183
164 204 183 9 8 54 49 100 90 47 41 90 80 95 86 6 6 48 44 95 85 83 73 103 91
194 177 76 73 128 203 121 302 -10 138 -63 226 -188 312 l-58 40 6 46 c6 50
11 96 20 190 3 31 7 73 9 92 3 19 8 66 11 103 4 37 8 77 10 88 2 10 6 52 10
92 3 39 7 86 9 102 3 17 7 64 11 105 3 41 8 86 10 100 2 14 9 72 15 130 5 58
12 123 14 145 3 22 7 69 10 105 4 36 8 76 11 90 2 14 7 57 10 95 10 109 39
161 110 200 42 23 124 15 169 -16z"/>
</g>
</svg>
